<?xml version="1.0" encoding="utf-8"?>
<!-- Generator: Adobe Illustrator 16.0.3, SVG Export Plug-In . SVG Version: 6.00 Build 0)  -->
<!DOCTYPE svg PUBLIC "-//W3C//DTD SVG 1.1//EN" "http://www.w3.org/Graphics/SVG/1.1/DTD/svg11.dtd">
<svg version="1.1" id="Layer_1" xmlns="http://www.w3.org/2000/svg" xmlns:xlink="http://www.w3.org/1999/xlink" x="0px" y="0px"
	 width="512px" height="212px" viewBox="0 151.5 512 212" enable-background="new 0 151.5 512 212" xml:space="preserve">
<path d="M465.4,247c-2.2-22-12.4-43-28.9-58.4c-17.1-15.9-39.3-24.7-62.7-24.7c-41.5,0-77.3,27.4-88.5,67c-7-7-18.5-11.7-29.3-11.7
	s-22.3,4.7-29.3,11.7c-11.2-39.6-47-67-88.5-67c-23.3,0-45.6,8.7-62.7,24.6C59,204,48.8,225,46.6,247H32v18h14.6
	c2.2,22,12.4,43,28.9,58.4C92.6,339.3,114.8,348.1,138.2,348.1c50.8,0,92.1-41.199,92.1-92c0-0.1,0-0.1,0-0.1l0,0
	c0-9.9,11.5-21.6,25.7-21.6s25.7,11.7,25.7,21.6l0,0c0,0,0,0,0,0.1c0,50.8,41.3,92,92.1,92c23.3,0,45.601-8.699,62.7-24.699
	c16.5-15.4,26.7-36.5,28.9-58.5H480v-18h-14.6V247z M373.8,333c-42.5,0-77-34.6-77-77c0-42.5,34.601-77,77-77c42.5,0,77,34.6,77,77
	C450.8,298.5,416.3,333,373.8,333z M138.2,333c-42.5,0-77-34.6-77-77c0-42.5,34.6-77,77-77c42.5,0,77,34.6,77,77
	C215.2,298.5,180.7,333,138.2,333z"/>
</svg>
